<svg id="Calque_1" data-name="Calque 1" xmlns="http://www.w3.org/2000/svg" xmlns:xlink="http://www.w3.org/1999/xlink" width="165.13" height="92.69" viewBox="0 0 165.13 92.69"><defs><style>.cls-1{fill:#fff;}.cls-2{fill:#58616b;}.cls-3{fill:#8eb73c;}.cls-4{mask:url(#mask);}</style><mask id="mask" x="155.36" y="70.43" width="9.77" height="21.93" maskUnits="userSpaceOnUse"><g transform="translate(0 0)"><g id="mask-2"><polygon id="path-1" class="cls-1" points="165.13 92.36 165.13 70.43 155.36 70.43 155.36 92.36 165.13 92.36"/></g></g></mask></defs><title>logo_2</title><g id="Symbols-_-menus-VALIDES" data-name="Symbols-+-menus-VALIDES"><g id="LOGO-GATEFOSSE"><g id="Group-8"><g id="Page-1"><path id="Fill-1" class="cls-2" d="M78.44,32.2A32.19,32.19,0,1,1,46.25,0,32.2,32.2,0,0,1,78.44,32.2" transform="translate(0 0)"/><path id="Fill-3" class="cls-2" d="M114.73,57.56a21.62,21.62,0,0,0,7.86,1.7c10.07,0,23.1-10.61,23.1-22.13h-30l4.41-4.81h30.06c2.24,8.09-.66,15-6,21.59A27.5,27.5,0,0,1,109.64,61" transform="translate(0 0)"/><path id="Fill-5" class="cls-3" d="M97.16,29.66A27.58,27.58,0,0,0,97,32.72l-5,1a33.24,33.24,0,0,1,13.83-28.4,32.24,32.24,0,1,0,4.27,3.33c-6.91,4.62-12.13,12.61-12.94,21" transform="translate(0 0)"/><path id="Fill-7" class="cls-2" d="M125.32.14c-7.15-.18-13.9,1.3-19.48,5.19a32.75,32.75,0,0,0-13.71,23.8A32.19,32.19,0,0,0,92,33.72l5-1a27.58,27.58,0,0,1,.12-3.06c.82-8.4,6-16.39,12.94-21A22.07,22.07,0,0,1,124.92,4.7c8.85,1.06,14.92,6.49,20.27,13.79l5-1.3C144.52,7.7,135.26.39,125.32.14" transform="translate(0 0)"/><path id="Fill-9" class="cls-2" d="M91.61,46a9,9,0,1,1,9,9,9,9,0,0,1-9-9" transform="translate(0 0)"/><path id="Fill-11" class="cls-3" d="M27.19,85.47h4.17L29.3,80.59h0Zm.78-9H30.6l7.62,15.92H34.51l-1.94-4.11H26.06l-1.94,4.11H20.41Z" transform="translate(0 0)"/><polygon id="Fill-13" class="cls-3" points="74.48 76.44 84.26 76.44 84.26 79.19 77.85 79.19 77.85 83.09 83.99 83.09 83.99 85.84 77.85 85.84 77.85 89.61 84.26 89.61 84.26 92.36 74.48 92.36 74.48 76.44"/><polygon id="Fill-15" class="cls-3" points="89.66 76.44 98.91 76.44 98.91 79.19 93.03 79.19 93.03 83.09 98.65 83.09 98.65 85.84 93.03 85.84 93.03 92.36 89.66 92.36 89.66 76.44"/><path id="Fill-17" class="cls-3" d="M110.79,89.93c3.46,0,6.14-2.56,6.14-5.5a6.17,6.17,0,0,0-12.27,0c0,2.95,2.67,5.5,6.14,5.5m0-13.81c5.16,0,9.5,3.61,9.5,8.32s-4.27,8.25-9.5,8.25-9.5-3.68-9.5-8.25,4.34-8.32,9.5-8.32" transform="translate(0 0)"/><path id="Fill-19" class="cls-3" d="M127.35,87.8a2.49,2.49,0,0,0,4.91.13c0-1.64-1.2-1.94-3.46-2.69-1.4-.47-4.32-1.23-4.32-4.58,0-2.53,2.26-4.53,5.33-4.53,2.11,0,5.21,1.29,5.38,4.53h-3.44a1.84,1.84,0,0,0-2-1.78,1.71,1.71,0,0,0-1.87,1.62c0,1.38,1.18,1.68,3,2.22,1.5.43,4.76,1.44,4.76,4.91s-3,5.08-5.9,5.08c-2.33,0-5.72-1.38-5.92-4.89Z" transform="translate(0 0)"/><path id="Fill-21" class="cls-3" d="M142.52,87.8a2.49,2.49,0,0,0,4.91.13c0-1.64-1.2-1.94-3.46-2.69-1.4-.47-4.32-1.23-4.32-4.58,0-2.53,2.26-4.53,5.33-4.53,2.11,0,5.21,1.29,5.38,4.53h-3.44a1.84,1.84,0,0,0-2-1.78A1.71,1.71,0,0,0,143,80.48c0,1.38,1.18,1.68,3,2.22,1.5.43,4.76,1.44,4.76,4.91s-3,5.08-5.89,5.08c-2.33,0-5.72-1.38-5.92-4.89Z" transform="translate(0 0)"/><g id="Group-25"><g class="cls-4"><path id="Fill-23" class="cls-3" d="M157.33,73.29l5.52-2.86,1.32,2.26-5.6,2.59Zm-2,3.14h9.77v2.75h-6.41v3.89h6.14v2.76h-6.14v3.77h6.41v2.75h-9.77Z" transform="translate(0 0)"/></g></g><polygon id="Fill-26" class="cls-3" points="70.18 76.45 56.22 76.45 56.22 79.2 61.51 79.19 61.51 92.36 64.87 92.36 64.87 79.19 70.18 79.2 70.18 76.45"/><polygon id="Fill-28" class="cls-3" points="52.47 76.45 38.5 76.45 38.51 79.2 43.79 79.19 43.79 92.36 47.16 92.36 47.16 79.19 52.47 79.2 52.47 76.45"/><path id="Fill-30" class="cls-3" d="M9.28,84.23h9.63v.33c0,4.43-4.43,7.89-9.39,7.89S0,89,0,84.38,4.43,76.3,9.43,76.3c4.45,0,7.69,2.64,8.6,4.87H14.1A5.88,5.88,0,0,0,9.36,79,5.72,5.72,0,0,0,3.28,84.4c0,2.37,2,5.37,6.25,5.37a6,6,0,0,0,5.25-2.85H9.28" transform="translate(0 0)"/></g></g></g></g></svg>