<?xml version="1.0" encoding="utf-8"?>
<!-- Generator: Adobe Illustrator 21.1.0, SVG Export Plug-In . SVG Version: 6.00 Build 0)  -->
<svg version="1.1" id="レイヤー_1" xmlns="http://www.w3.org/2000/svg" xmlns:xlink="http://www.w3.org/1999/xlink" x="0px"
	 y="0px" width="383.8px" height="105.7px" viewBox="0 0 383.8 105.7" style="enable-background:new 0 0 383.8 105.7;"
	 xml:space="preserve">
<style type="text/css">
	.st0{fill:#231815;}
	.st1{fill:#BF1443;}
</style>
<g>
	<g>
		<g>
			<g>
				<g>
					<path class="st0" d="M36.3,30.8c-0.3-1-0.6-2-0.9-2.9c0,0-2.3,0.1-3.4,0.1c-1.1,0-3.5-0.1-3.5-0.1c0,0.2,0.3,1.8,0.4,4.1
						C31.2,31.4,33.7,30.9,36.3,30.8z"/>
					<path class="st0" d="M32.3,38.1c-1.4,0.5-2.6,1.1-3.2,1.7c0,0,0,0.1,0,0.2c0,2.5,0,4.5,0,5.3c0,4,0,7.6-0.4,12
						c0,0,0.9-0.1,2-0.1c1.2,0,2.1,0.1,2.1,0.1c-0.4-4.3-0.4-6.9-0.4-12V38.1z"/>
				</g>
				<g>
					<path class="st0" d="M42,48.5c1.6-0.5,2.6-1.2,3.3-2c0-3.6,0-6.5,0-6.6c0-4,0-7.6,0.4-12c0,0-0.8,0.1-2.1,0.1
						c-1.3,0-2-0.1-2-0.1c0.4,4.3,0.4,6.9,0.4,12L42,48.5z"/>
					<path class="st0" d="M37.5,49c1.7,0,3-0.2,4.1-0.4c-1-3.4-2.2-7.5-3.4-11.5c-0.2,0-0.5,0-0.7,0c-1.5,0-3.2,0.3-4.7,0.8
						C33.7,41,35,45.1,36.1,49C36.6,49,37,49,37.5,49z"/>
					<path class="st0" d="M38,55.3c0.2,0.7,0.4,1.3,0.6,2c0,0,1.7-0.1,3.2-0.1c1.9,0,3.6,0.1,3.6,0.1c0-0.4-0.1-1.6-0.1-2.9
						C43.2,54.9,40.7,55.3,38,55.3z"/>
				</g>
			</g>
			<path class="st0" d="M47.1,34.3c0,1.6,0,3.2,0,4.8c0.6,1,1,2.3,1,4c0,7.7-8.2,7.8-10.6,7.8c-1,0-2.2-0.1-3.3-0.4
				c0,1,0.1,1.9,0.1,2.9c0.9,0.1,1.8,0.2,2.8,0.2c7.3,0,16.4-2,16.4-10.4C53.4,38.4,50.7,35.8,47.1,34.3z"/>
			<path class="st0" d="M36.9,0L0,63.9h73.8L36.9,0z M36.9,8.5l29.5,51.1H7.4L36.9,8.5z"/>
			<path class="st0" d="M27.2,51.7c0.1-2.3,0-6.1,0-8.6c0-4.2,0.1-4,0.1-4c1.5-2.1,6.6-3.8,10.2-3.8c0.6,0,1.5,0,2.6,0.1
				c0-0.9,0-1.8-0.1-2.7c-1-0.1-2-0.1-3-0.1c-7.7,0-14.6,3.9-14.6,3.9s0.2,1.7,0.2,6.5c0,4.8-0.2,6.5-0.2,6.5S24.3,50.7,27.2,51.7z"
				/>
		</g>
		<path class="st1" d="M126,50.6l0-15.9c0-8.4-0.1-12.9-0.7-20c0,0,1.2,0.2,3.3,0.2c2.1,0,3.5-0.2,3.5-0.2
			c-0.7,7.4-0.7,13.4-0.7,20.1c0,0.1,0,8,0,16.3c0,2.8,0.2,11.1,0.3,12.7c0,0-3.3-0.1-6.4-0.1c-2.6,0-5.7,0.1-5.7,0.1
			c-5.6-7-20.6-26.8-27.4-35.2v15.2c0,8.4,0.1,12.8,0.7,20c0,0-1.5-0.2-3.4-0.2c-1.9,0-3.4,0.2-3.4,0.2c0.7-7.4,0.7-13.4,0.7-20.1
			c0-2.4,0-11,0-18.8c0-5.5-0.7-10-0.7-10.3c0,0,4.3,0.2,6.1,0.2c1.7,0,5.9-0.2,5.9-0.2C102.9,21.3,118.4,41.3,126,50.6z"/>
		<path class="st1" d="M175.8,35.8c-3.8-11-6-17.2-7.1-21.1c0,0-2.9,0.2-6,0.2c-3.8,0-6-0.2-6-0.2s-4.9,15.2-10.1,28.6
			c-3.5,9.2-7.1,17.6-8.3,20.5c0,0,1.7-0.2,3.8-0.2c2.2,0,4,0.2,4,0.2c0.7-3.8,2.4-9.9,4.4-16.2c3.4-0.1,6.3,0,8.1,0
			c1.7,0,4.2-0.1,7.2,0c2.2,8,3.9,14,4.4,16.2c0,0,3.5-0.2,7.9-0.2c4.3,0,8.1,0.2,8.1,0.2C184.9,60.8,180.2,48.7,175.8,35.8z
			 M158.6,43.4c-2.4,0-4.3,0-6.7,0c2.5-7.6,7-19.1,7-19.1s2.8,7.9,5.1,16.4c0.2,0.9,0.5,1.8,0.7,2.6
			C162.7,43.5,160.7,43.4,158.6,43.4z"/>
		<path class="st1" d="M217.4,64.9c-8.2,0-28.4-3.7-28.4-25.3c0-18.2,13.4-25.8,29.9-25.8c12.1,0,17.8,3.6,19.5,4.5l0,9.2h-0.6
			c-1-2.1-5.7-9.8-17.7-9.8c-8.7,0-16.5,5.3-16.5,21.8c0,19.1,10,21,14.7,21c3.3,0,5.3-0.8,6.4-1.5c0.6-0.3,0.6-0.6,0.6-1.5
			c0-0.1,0-2.2,0-6.4c0-4.6-0.5-8.3-0.8-10.2c1.4,0.1,4.1,0.2,7.3,0.2c3.2,0,5.9-0.1,7.3-0.2c-0.9,6.7-0.8,16.9-0.7,19.5
			C235.6,62.1,227.1,64.9,217.4,64.9z"/>
		<path class="st1" d="M282.7,35.8c-3.8-11-6-17.2-7.1-21.1c0,0-2.9,0.2-6,0.2c-3.8,0-6-0.2-6-0.2s-4.9,15.2-10.1,28.6
			c-3.5,9.2-7.1,17.6-8.3,20.5c0,0,1.7-0.2,3.8-0.2c2.2,0,4,0.2,4,0.2c0.7-3.8,2.4-9.9,4.4-16.2c3.4-0.1,6.3,0,8.1,0
			c1.7,0,4.2-0.1,7.2,0c2.2,8,3.9,14,4.4,16.2c0,0,3.5-0.2,7.9-0.2c4.3,0,8.1,0.2,8.1,0.2C291.7,60.8,287.1,48.7,282.7,35.8z
			 M265.5,43.4c-2.4,0-4.3,0-6.7,0c2.5-7.6,7-19,7-19s2.8,7.9,5.1,16.4c0.2,0.9,0.5,1.8,0.7,2.6C269.5,43.5,267.6,43.4,265.5,43.4z"
			/>
		<path class="st1" d="M336.1,25.7l-0.5,0c-1-1.9-4.6-7.9-14.1-7.9c-9,0-10,4-10,5.9c0,5.5,5.7,7.4,12.8,10.8
			c6.1,2.9,15.6,6.3,15.6,16.3c0,7.1-6.6,14.1-22.4,14.1c-11,0-16.8-3.8-18.6-4.7c-0.1-2.8-0.1-7.8,0-10.3h0.6
			c1.3,3,5.8,11.1,17.3,11.1c5.6,0,9.5-2.3,9.5-6.5c0-5.3-7-8-11.8-10.4c-4.9-2.4-15.1-6.5-15.1-16.1c0-8.9,7.3-14.1,19.8-14.1
			c5.5,0,11.5,1.4,14,1.9c0.4,0.1,2,0.4,2.9,0.6C336.2,18.3,336.2,22.8,336.1,25.7z"/>
		<path class="st1" d="M383.8,58.2c-2.2,0.5-7,1.5-13.7,1.5c-4.7,0-7.4-0.1-7.4-0.1s-0.1-5.7-0.1-11.9v-6.7c0,0,4.3-0.1,7.6-0.1
			c3,0,6.6,0.1,8.8,0.6c-0.1-1.7-0.1-3.7,0-5.2c-2.2,0.3-6,0.6-8.9,0.6c-4.8,0-7.5-0.2-7.5-0.2v-7.7c0-6.9,0.1-9.7,0.1-9.7
			s2.9-0.2,7-0.2c6.7,0,10.8,0.9,12.6,1.2c-0.5-2.9-0.8-5.4-0.8-5.4c-3.8,0.3-8.8,0.3-15.7,0.3c-6.7,0-16.4-0.3-16.4-0.3
			c0.2,2.2,0.6,8.9,0.6,23.2c0,16.5-0.4,23.6-0.6,25.9c0,0,9.6-0.3,16.7-0.3c6.9,0,10.3,0,16.3,0.3
			C382.5,63.9,382.8,61.2,383.8,58.2z"/>
	</g>
	<g>
		<g>
			<g>
				<path class="st0" d="M310.2,81.5c-1.7,0-5.1,0.1-6.1,0.1c-1.9,0-2.3,0-2.3,0s0.2,1.7,0.2,9.1c0,8.5-0.2,10.2-0.2,10.2h7.7
					c5.6,0,11.6-1.9,11.6-10.2C321.1,81.9,313.4,81.5,310.2,81.5z M308.5,99.2c-0.9,0-1.6-0.1-1.6-0.1s-0.1-4.6-0.1-8.4
					c0-3.5,0.1-7.4,0.1-7.4c0.4,0,1.2-0.1,2.3-0.1c3.2,0,6.6,1.5,6.6,7.6C315.8,98.2,311.8,99.2,308.5,99.2z"/>
				<path class="st0" d="M219.5,101.2c-3.7,0-11.5-1.4-11.5-9.9c0-7.2,5.3-10.2,11.8-10.2c4.8,0,7,1.4,7.7,1.8v3.6h-0.2
					c-0.4-0.8-2.2-3.9-7-3.9c-3.4,0-6.5,2.1-6.5,8.6c0,7.2,4.6,8.2,6.5,8.2c1.5,0,4.8-0.3,7-3.5l0.6,0.4
					C227.4,97.5,225.4,101.2,219.5,101.2z"/>
				<path class="st0" d="M240.7,81.1c-3.3,0-9.9,1.9-9.9,10c0,9.7,7.7,10.1,10.1,10.1c2.5,0,10.4-1,10.4-10.6
					C251.2,81.2,242.9,81.1,240.7,81.1z M241.1,99.5c-1.7,0-5-1-5-8.4c0-7.2,3.2-8.3,5-8.3c1.9,0,4.7,1.4,4.7,8
					C245.8,98.6,242.8,99.5,241.1,99.5z"/>
				<path class="st0" d="M255,101.3c-1.2,0-2-0.8-2-1.9c0-1.1,0.9-1.9,2-1.9c1.1,0,2,0.8,2,1.9C257,100.3,256.3,101.3,255,101.3z"/>
				<path class="st0" d="M323.7,101.3c-1.2,0-2-0.8-2-1.9c0-1.1,0.8-1.9,2-1.9c1.1,0,2,0.8,2,1.9
					C325.7,100.3,324.9,101.3,323.7,101.3z"/>
				<path class="st0" d="M276.6,99.2c-1.8,0-2.7-0.1-2.7-0.1s0-2.2,0-4.7v-3.8v-2.7c0-3.8,0.2-5.7,0.2-6.4c0,0-1.2,0-2.7,0.1
					c-1.5,0-2.7-0.1-2.7-0.1c0.1,0.9,0.3,3.5,0.3,9.2c0,6.5-0.2,9.3-0.2,10.2c0,0,3.4-0.1,6.2-0.1c2.7,0,3.6,0,6,0.1
					c0,0,0.1-1.1,0.5-2.3C280.6,98.8,279.3,99.2,276.6,99.2z"/>
				<path class="st0" d="M293.8,83.2c2.7,0,4,0.5,4.7,0.6c-0.2-1.1-0.1-2.3-0.1-2.3c-1.5,0.1-6.9,0.2-8.8,0.2c-1.9,0-7.2,0-8.7-0.2
					c0,0,0.1,1.2-0.1,2.3c0.7-0.1,2.1-0.6,4.7-0.6c0.6,0,1.1,0,1.5,0c0.1,1.5,0.1,3.8,0.1,7.4c0,6.5-0.2,9.3-0.2,10.2
					c0,0,1.3,0,2.7-0.1c1.4,0,2.7,0.1,2.7,0.1c-0.1-0.9-0.2-3.7-0.2-10.2c0-3.6,0.1-5.9,0.1-7.4C292.7,83.3,293.2,83.2,293.8,83.2z"
					/>
				<path class="st0" d="M201.5,90.3c0,0-1.1,0-1.8,0c-0.6,0-1.6,0-1.6,0c0,0.9-0.7,2.8-1.9,4.7c-0.7-0.8-1.4-1.5-2.2-2.4
					c-0.8-0.9-1.6-1.8-2.2-2.6c2.2-1.3,4.2-2.8,4.3-4.9c0.1-3.3-2.9-4-4.9-4c-1.9,0-5.8,0.8-5.8,4.7c0,1.8,0.8,3.4,1.9,5.1
					c-2.2,1.1-4.7,2.5-4.9,5.4c-0.1,2,1,4.9,6.5,4.9c2,0,3.8-0.7,5.4-1.9c0.6,0.6,1,1.2,1.3,1.4c0,0,1-0.1,2.6-0.1
					c1.5,0,3.2,0.1,3.2,0.1c-1.6-1.8-2.9-3.1-4-4.3C199.2,94.5,200.6,92.2,201.5,90.3z M191.6,82.4c1.3,0,2,1,2,2.5
					c0,1.5-0.7,2.5-2.7,3.9c-0.9-1.4-1.5-2.6-1.5-3.8C189.5,83.1,190.5,82.4,191.6,82.4z M190.2,99c-1.7,0-3.8-0.9-3.8-3.4
					c0-1.6,0.8-2.6,1.8-3.4c0.7,1,1.6,1.9,2.4,2.9c0.8,1,1.7,2,2.5,3C192.3,98.6,191.3,99,190.2,99z"/>
			</g>
			<path class="st0" d="M258.5,105.7c2.4,0,4.9-3,4.9-5.9c0-1.7-1.2-2.4-2.2-2.4c-1,0-2.1,0.7-2.1,2c0,0.9,0.5,1.5,1.2,1.8
				c0.3,0.1,0.5,0.3,0.5,0.8c0,0.9-0.6,2.8-2.3,3.3c0,0,0,0.1,0,0.3C258.5,105.5,258.5,105.7,258.5,105.7z"/>
		</g>
		<g>
			<path class="st0" d="M73.8,95.6l0-6.2c0-3.3,0-5.1-0.3-7.9c0,0,0.5,0.1,1.3,0.1c0.8,0,1.4-0.1,1.4-0.1c-0.3,2.9-0.3,5.3-0.3,7.9
				c0,0.1,0,3.2,0,6.4c0,1.1,0.1,4.3,0.1,5c0,0-1.3-0.1-2.5-0.1c-1,0-2.3,0.1-2.3,0.1c-2.2-2.8-8.1-10.6-10.8-13.8v6
				c0,3.3,0,5.1,0.3,7.9c0,0-0.6-0.1-1.3-0.1c-0.8,0-1.3,0.1-1.3,0.1c0.3-2.9,0.3-5.3,0.3-7.9c0-0.9,0-4.3,0-7.4
				c0-2.2-0.3-3.9-0.3-4.1c0,0,1.7,0.1,2.4,0.1c0.7,0,2.3-0.1,2.3-0.1C64.8,84.1,70.9,92,73.8,95.6z"/>
			<path class="st0" d="M93.4,89.8c-1.5-4.3-2.4-6.8-2.8-8.3c0,0-1.1,0.1-2.4,0.1c-1.5,0-2.4-0.1-2.4-0.1s-1.9,6-4,11.3
				c-1.4,3.6-2.8,6.9-3.3,8.1c0,0,0.7-0.1,1.5-0.1c0.9,0,1.6,0.1,1.6,0.1c0.3-1.5,0.9-3.9,1.7-6.4c1.3-0.1,2.5,0,3.2,0
				c0.7,0,1.7,0,2.8,0c0.8,3.2,1.5,5.5,1.7,6.4c0,0,1.4-0.1,3.1-0.1c1.7,0,3.2,0.1,3.2,0.1C97,99.6,95.2,94.9,93.4,89.8z M86.7,92.8
				c-0.9,0-1.7,0-2.6,0c1-3,2.7-7.5,2.7-7.5s1.1,3.1,2,6.5c0.1,0.4,0.2,0.7,0.3,1C88.3,92.8,87.5,92.8,86.7,92.8z"/>
			<path class="st0" d="M109.8,101.2c-3.2,0-11.2-1.4-11.2-9.9c0-7.2,5.3-10.2,11.8-10.2c4.8,0,7,1.4,7.7,1.8v3.6h-0.2
				c-0.4-0.8-2.2-3.9-7-3.9c-3.4,0-6.5,2.1-6.5,8.6c0,7.5,4,8.3,5.8,8.3c1.3,0,2.1-0.3,2.5-0.6c0.2-0.1,0.2-0.2,0.3-0.6
				c0,0,0-0.9,0-2.5c0-1.8-0.2-3.3-0.3-4c0.6,0,1.6,0.1,2.9,0.1c1.2,0,2.3,0,2.9-0.1c-0.3,2.7-0.3,6.6-0.3,7.7
				C117,100.2,113.7,101.2,109.8,101.2z"/>
			<path class="st0" d="M135.5,89.8c-1.5-4.3-2.4-6.8-2.8-8.3c0,0-1.1,0.1-2.4,0.1c-1.5,0-2.4-0.1-2.4-0.1s-1.9,6-4,11.3
				c-1.4,3.6-2.8,6.9-3.3,8.1c0,0,0.7-0.1,1.5-0.1c0.9,0,1.6,0.1,1.6,0.1c0.3-1.5,0.9-3.9,1.7-6.4c1.3-0.1,2.5,0,3.2,0
				c0.7,0,1.7,0,2.8,0c0.9,3.2,1.5,5.5,1.7,6.4c0,0,1.4-0.1,3.1-0.1c1.7,0,3.2,0.1,3.2,0.1C139.1,99.6,137.3,94.9,135.5,89.8z
				 M128.7,92.8c-0.9,0-1.7,0-2.6,0c1-3,2.7-7.5,2.7-7.5s1.1,3.1,2,6.5c0.1,0.4,0.2,0.7,0.3,1C130.3,92.8,129.6,92.8,128.7,92.8z"/>
			<path class="st0" d="M156.6,85.8h-0.2c-0.4-0.7-1.8-3.1-5.5-3.1c-3.6,0-4,1.6-4,2.3c0,2.2,2.3,2.9,5,4.2c2.4,1.1,6.1,2.5,6.1,6.4
				c0,2.8-2.6,5.6-8.8,5.6c-4.3,0-6.6-1.5-7.3-1.9c0-1.1-0.1-3.1,0-4.1h0.2c0.5,1.2,2.3,4.4,6.8,4.4c2.2,0,3.7-0.9,3.7-2.6
				c0-2.1-2.7-3.1-4.6-4.1c-1.9-0.9-5.9-2.6-5.9-6.3c0-3.5,2.9-5.6,7.8-5.6c2.1,0,4.5,0.5,5.5,0.7c0.1,0,0.8,0.2,1.2,0.2
				C156.6,82.9,156.6,84.7,156.6,85.8z"/>
			<path class="st0" d="M175.3,98.6c-0.9,0.2-2.7,0.6-5.4,0.6c-1.8,0-2.9-0.1-2.9-0.1s0-2.2,0-4.7v-2.6c0,0,1.7,0,3,0
				c1.2,0,2.6,0,3.5,0.2c0-0.7,0-1.5,0-2c-0.9,0.1-2.4,0.2-3.5,0.2c-1.9,0-3-0.1-3-0.1v-3c0-2.7,0.1-3.8,0.1-3.8s1.1-0.1,2.8-0.1
				c2.7,0,4.2,0.3,5,0.5c-0.2-1.1-0.3-2.1-0.3-2.1c-1.5,0.1-3.4,0.1-6.2,0.1c-2.6,0-6.4-0.1-6.4-0.1c0.1,0.9,0.3,3.5,0.3,9.2
				c0,6.5-0.2,9.3-0.2,10.2c0,0,3.8-0.1,6.6-0.1c2.7,0,4,0,6.4,0.1C174.8,100.9,175,99.8,175.3,98.6z"/>
		</g>
	</g>
</g>
</svg>
